<?xml version="1.0" standalone="no"?>
<!DOCTYPE svg PUBLIC "-//W3C//DTD SVG 20010904//EN"
 "http://www.w3.org/TR/2001/REC-SVG-20010904/DTD/svg10.dtd">
<svg version="1.0" xmlns="http://www.w3.org/2000/svg"
 width="512.000000pt" height="512.000000pt" viewBox="0 0 512.000000 512.000000"
 preserveAspectRatio="xMidYMid meet">

<g transform="translate(0.000000,512.000000) scale(0.100000,-0.100000)"
fill="#000000" stroke="none">
<path d="M2315 5109 c-798 -81 -1501 -518 -1927 -1196 -487 -774 -516 -1777
-75 -2578 117 -213 253 -395 430 -573 211 -214 421 -365 692 -498 336 -165
657 -246 1030 -260 707 -28 1392 238 1895 736 763 755 975 1896 535 2873 -361
799 -1100 1353 -1980 1483 -122 18 -477 26 -600 13z m295 -1040 c62 -14 116
-54 148 -108 22 -38 28 -62 32 -134 l5 -88 81 -28 c157 -54 285 -143 390 -269
72 -87 157 -260 191 -387 l27 -100 5 -492 6 -493 153 -153 152 -152 0 -78 0
-77 -1240 0 -1240 0 0 77 0 78 153 152 152 153 6 493 c5 463 7 497 27 576 89
340 289 570 585 672 l82 28 5 88 c4 72 10 96 33 135 32 56 74 88 136 104 57
16 57 16 111 3z m256 -2756 c-33 -246 -329 -350 -519 -184 -44 39 -84 119 -93
184 l-7 47 313 0 313 0 -7 -47z"/>
</g>
</svg>
