<?xml version="1.0" standalone="no"?>
<!DOCTYPE svg PUBLIC "-//W3C//DTD SVG 20010904//EN"
 "http://www.w3.org/TR/2001/REC-SVG-20010904/DTD/svg10.dtd">
<svg version="1.0" xmlns="http://www.w3.org/2000/svg"
 width="512.000000pt" height="512.000000pt" viewBox="0 0 512.000000 512.000000"
 preserveAspectRatio="xMidYMid meet">

<g transform="translate(0.000000,512.000000) scale(0.100000,-0.100000)"
fill="#000000" stroke="none">
<path d="M81 5102 c-19 -9 -44 -30 -55 -45 l-21 -28 0 -2469 0 -2469 21 -28
c11 -15 36 -36 55 -45 32 -17 171 -18 2479 -18 2308 0 2447 1 2479 18 19 9 44
30 55 45 l21 28 0 2469 0 2469 -21 28 c-11 15 -36 36 -55 45 -32 17 -171 18
-2479 18 -2308 0 -2447 -1 -2479 -18z m4599 -2542 l0 -2120 -2120 0 -2120 0 0
2120 0 2120 2120 0 2120 0 0 -2120z"/>
<path d="M830 3525 l0 -765 765 0 765 0 0 765 0 765 -765 0 -765 0 0 -765z"/>
<path d="M2760 3525 l0 -765 765 0 765 0 0 765 0 765 -765 0 -765 0 0 -765z"/>
<path d="M830 1595 l0 -765 765 0 765 0 0 765 0 765 -765 0 -765 0 0 -765z"/>
<path d="M2760 1595 l0 -765 765 0 765 0 0 765 0 765 -765 0 -765 0 0 -765z"/>
</g>
</svg>
