<svg width="29" height="29" viewBox="0 0 29 29" fill="none" xmlns="http://www.w3.org/2000/svg">
<g clip-path="url(#clip0_343_2519)">
<path d="M14.4999 0C8.31597 0 3.0386 3.87087 0.953755 9.32161H3.19684C3.814 7.97832 4.66582 6.75588 5.71228 5.71174C6.86364 4.55399 8.23323 3.63612 9.74175 3.01129C11.2503 2.38646 12.8677 2.06707 14.5005 2.07161C17.8204 2.07161 20.9417 3.364 23.2888 5.71174C24.4466 6.86308 25.3646 8.23264 25.9895 9.74116C26.6145 11.2497 26.934 12.8672 26.9296 14.5C26.9296 17.8199 25.6372 20.9412 23.2894 23.2883C22.1379 24.446 20.7682 25.3638 19.2596 25.9886C17.751 26.6135 16.1334 26.9329 14.5005 26.9284C12.8677 26.9329 11.2503 26.6135 9.74177 25.9887C8.23326 25.3638 6.86367 24.446 5.71228 23.2883C4.66584 22.2441 3.81402 21.0217 3.19684 19.6784H0.953125C3.0386 25.1291 8.31723 29 14.4999 29C22.5083 29 29.0005 22.5084 29.0005 14.5C29.0005 6.49222 22.5083 0 14.4999 0Z" fill="black"/>
<path d="M11.3195 18.8941L12.784 20.3586L18.6426 14.5L12.784 8.64136L11.3195 10.1059L14.6778 13.4642H0V15.5358H14.6778L11.3195 18.8941Z" fill="black"/>
</g>
<defs>
<clipPath id="clip0_343_2519">
<rect width="29" height="29" fill="white"/>
</clipPath>
</defs>
</svg>
