<svg width="50" height="50" viewBox="0 0 50 50" fill="none" xmlns="http://www.w3.org/2000/svg">
<path d="M24.8521 0C18.2609 0 11.9397 2.61834 7.27902 7.27902C2.61834 11.9397 0 18.2609 0 24.8521C0.000879373 25.7008 0.0469671 26.5488 0.138067 27.3926C0.784198 33.4967 3.66649 39.1458 8.22963 43.2514C12.7928 47.357 18.7139 49.6287 24.8521 49.6287C30.9904 49.6287 36.9115 47.357 41.4746 43.2514C46.0378 39.1458 48.9201 33.4967 49.5662 27.3926C49.6573 26.5488 49.7034 25.7008 49.7043 24.8521C49.7043 18.2609 47.0859 11.9397 42.4252 7.27902C37.7646 2.61834 31.4433 0 24.8521 0V0ZM39.8186 37.0573C39.791 37.0573 39.6529 37.2782 39.6253 37.2782C37.8176 39.4392 35.5578 41.1774 33.0052 42.37C30.4527 43.5627 27.6696 44.1808 24.8521 44.1808C22.0347 44.1808 19.2516 43.5627 16.699 42.37C14.1465 41.1774 11.8866 39.4392 10.0789 37.2782C10.0513 37.2782 9.91324 37.0573 9.88562 37.0573C9.73399 36.8372 9.64782 36.5787 9.6371 36.3117C9.64225 36.022 9.73458 35.7406 9.90206 35.5042C10.0695 35.2677 10.3044 35.0872 10.576 34.9863C12.6194 34.2959 14.5799 33.6332 15.1322 33.4951C15.1193 33.4329 15.1201 33.3686 15.1344 33.3066C15.1487 33.2447 15.1762 33.1865 15.215 33.1362C15.2874 32.8689 15.4401 32.6302 15.6524 32.4525C15.8648 32.2747 16.1265 32.1664 16.4024 32.1421L19.9093 31.8659C19.8798 31.1113 19.7015 30.37 19.3847 29.6845V29.6569C19.0888 28.8769 18.6692 28.1496 18.1421 27.503C16.698 25.6192 15.9297 23.3044 15.9606 20.931C15.8079 18.4903 16.6192 16.0872 18.22 14.2385C19.8208 12.3898 22.0833 11.2432 24.5208 11.0454H25.1835C27.6209 11.2432 29.8834 12.3898 31.4842 14.2385C33.0851 16.0872 33.8964 18.4903 33.7437 20.931C33.7746 23.3044 33.0062 25.6192 31.5622 27.503C31.0351 28.1496 30.6155 28.8769 30.3196 29.6569V29.6845C30.0028 30.37 29.8245 31.1113 29.7949 31.8659L33.3018 32.1421C33.5777 32.1664 33.8395 32.2747 34.0518 32.4525C34.2641 32.6302 34.4168 32.8689 34.4892 33.1362C34.5281 33.1865 34.5556 33.2447 34.5698 33.3066C34.5841 33.3686 34.5849 33.4329 34.5721 33.4951C35.1243 33.6332 37.0849 34.2959 39.1283 34.9863C39.3308 35.0512 39.5151 35.163 39.6663 35.3125C39.8174 35.462 39.9313 35.645 39.9985 35.8468C40.0658 36.0485 40.0845 36.2632 40.0533 36.4735C40.022 36.6838 39.9416 36.8838 39.8186 37.0573V37.0573Z" fill="black"/>
</svg>
