<svg width="29" height="29" viewBox="0 0 29 29" fill="none" xmlns="http://www.w3.org/2000/svg">
<path d="M17.9145 16.5295C18.2476 16.6598 18.5732 16.8089 18.8895 16.976C19.2816 17.183 19.4316 17.6688 19.2245 18.0609C19.0174 18.4529 18.5317 18.6029 18.1396 18.3959C17.0117 17.8002 15.7534 17.4845 14.4479 17.4845C10.64 17.4845 7.39176 20.1927 6.67925 23.8833C6.59519 24.3187 6.1741 24.6035 5.73873 24.5194C5.30333 24.4354 5.01854 24.0143 5.1026 23.5789C5.73236 20.317 8.00571 17.6941 10.9827 16.5302C8.8157 15.3162 7.35112 12.9987 7.35112 10.3393C7.35112 6.42219 10.5286 3.24695 14.448 3.24695C18.3673 3.24695 21.5447 6.42222 21.5447 10.3393C21.5447 12.9982 20.0807 15.3153 17.9145 16.5295ZM19.939 10.3393C19.939 7.3093 17.4807 4.85271 14.448 4.85271C11.4152 4.85271 8.95688 7.30927 8.95688 10.3393C8.95688 13.3694 11.4152 15.826 14.448 15.826C17.4807 15.826 19.939 13.3694 19.939 10.3393ZM20.2985 20.16V17.752C20.2982 17.6095 20.3361 17.4694 20.4081 17.3464C20.4779 17.2273 20.5771 17.128 20.6962 17.0583C20.8193 16.9862 20.9593 16.9484 21.1019 16.9487C21.2445 16.9484 21.3845 16.9862 21.5076 17.0583C21.6267 17.128 21.7259 17.2273 21.7957 17.3464C21.8677 17.4694 21.9055 17.6095 21.9053 17.752V20.16H24.2893C24.7327 20.16 25.0921 20.5194 25.0921 20.9628C25.0921 21.4062 24.7327 21.7657 24.2893 21.7657H21.9053V24.1468C21.9055 24.2894 21.8677 24.4294 21.7957 24.5525C21.7259 24.6716 21.6267 24.7708 21.5076 24.8406C21.3845 24.9126 21.2445 24.9505 21.1019 24.9502C20.9593 24.9505 20.8193 24.9126 20.6962 24.8406C20.5771 24.7708 20.4779 24.6716 20.4081 24.5525C20.3361 24.4294 20.2982 24.2894 20.2985 24.1468V21.7657H17.8877C17.4444 21.7657 17.0849 21.4062 17.0849 20.9628C17.0849 20.5194 17.4444 20.16 17.8877 20.16H20.2985Z" fill="black"/>
</svg>
