<svg width="35" height="35" viewBox="0 0 35 35" fill="none" xmlns="http://www.w3.org/2000/svg">
<path d="M33.7972 27.9735L27.886 22.0623L23.3393 20.1839C24.8532 18.031 25.6643 15.4626 25.6614 12.8307C25.6614 5.7558 19.9056 0 12.8307 0C5.7558 0 0 5.7558 0 12.8307C0 19.9056 5.7558 25.6614 12.8307 25.6614C15.4855 25.6644 18.0751 24.8393 20.2389 23.301L22.1124 27.8355L28.0234 33.7469C28.4025 34.1261 28.8525 34.4268 29.3478 34.632C29.8431 34.8372 30.374 34.9428 30.9101 34.9428C31.4463 34.9428 31.9772 34.8372 32.4725 34.6321C32.9678 34.4269 33.4179 34.1262 33.797 33.7471C34.1761 33.368 34.4768 32.918 34.682 32.4227C34.8872 31.9274 34.9928 31.3965 34.9928 30.8604C34.9929 30.3242 34.8873 29.7933 34.6821 29.298C34.477 28.8027 34.1763 28.3526 33.7972 27.9735ZM2.33285 12.8307C2.33285 7.04229 7.04229 2.33285 12.8307 2.33285C18.6191 2.33285 23.3285 7.04229 23.3285 12.8307C23.3285 18.6191 18.6191 23.3285 12.8307 23.3285C7.04229 23.3285 2.33285 18.6191 2.33285 12.8307ZM32.1475 32.0974C31.8191 32.425 31.3742 32.609 30.9103 32.609C30.4464 32.609 30.0014 32.425 29.6731 32.0974L24.0908 26.5152L22.3489 22.2989L26.5653 24.0408L32.1476 29.623C32.4752 29.9514 32.6592 30.3964 32.6592 30.8603C32.6591 31.3241 32.4751 31.769 32.1475 32.0974Z" fill="black"/>
</svg>
